<?xml version="1.0" encoding="utf-8"?>
<!-- Generator: Adobe Illustrator 21.0.0, SVG Export Plug-In . SVG Version: 6.00 Build 0)  -->
<svg version="1.1" xmlns="http://www.w3.org/2000/svg" xmlns:xlink="http://www.w3.org/1999/xlink" x="0px" y="0px"
	 viewBox="0 0 100 100" style="enable-background:new 0 0 100 100;" xml:space="preserve">
<style type="text/css">
	.st0{fill:#7A9AE6;}
	.st1{fill:#FFFFFF;}
</style>
<g id="Layer_2">
	<path class="st0" d="M82.2,94.2h-65c-6.6,0-12-5.4-12-12v-65c0-6.6,5.4-12,12-12h65c6.6,0,12,5.4,12,12v65
		C94.2,88.8,88.8,94.2,82.2,94.2z"/>
</g>
<g id="Layer_1">
	<path class="st1" d="M51.3,69.2c-0.9-0.1-1.7-0.2-2.6-0.4c-0.9-0.2-1.8-0.4-2.7-0.7c-0.5-0.2-1.1-0.1-1.5,0.3L43.9,69
		c-3.6,3.6-9.4,4-13.3,0.7c-4.2-3.7-4.4-10.1-0.5-14l9.5-9.5c1.2-1.2,2.7-2.1,4.3-2.5c2-0.5,4.1-0.4,6,0.4c1.2,0.5,2.3,1.2,3.2,2.1
		c0.5,0.5,0.9,1.1,1.2,1.7c0.5,0.8,1.6,1,2.3,0.3l3.5-3.5c0.5-0.5,0.6-1.3,0.1-1.9c-0.5-0.7-1.1-1.4-1.7-2c-0.9-0.9-1.9-1.7-3-2.4
		c-1.8-1.1-3.8-1.9-5.8-2.3c-3.9-0.8-8.1-0.2-11.7,1.8c-1.4,0.8-2.7,1.7-3.9,2.9L24.9,50c-6.6,6.6-7.1,17.3-0.8,24.1
		c6.7,7.2,17.9,7.4,24.8,0.5l3.1-3.1C53,70.8,52.5,69.3,51.3,69.2z M74.3,24.3c-6.8-6.3-17.6-5.8-24.1,0.8l-2.9,2.7
		c-0.9,0.9-0.3,2.3,0.9,2.4c1.8,0.1,3.5,0.5,5.3,1.1c0.5,0.2,1.1,0,1.5-0.3l0.6-0.6c3.6-3.6,9.4-4,13.3-0.7c4.2,3.7,4.4,10.1,0.5,14
		l-9.5,9.5c-1.2,1.2-2.7,2.1-4.3,2.5c-2,0.5-4.1,0.4-6-0.4c-1.2-0.5-2.3-1.2-3.2-2.1c-0.5-0.5-0.9-1-1.2-1.6c-0.5-0.8-1.6-1-2.3-0.3
		l-3.5,3.5c-0.5,0.5-0.6,1.3-0.1,1.9c0.5,0.7,1.1,1.4,1.7,2c0.9,0.9,1.9,1.7,3,2.4c1.8,1,3.8,1.7,5.8,2.1c3.9,0.8,8.1,0.2,11.7-1.8
		c1.4-0.8,2.7-1.7,3.9-2.9l9.5-9.5C81.6,42.2,81.5,30.9,74.3,24.3z"/>
</g>
</svg>